<?xml version="1.0" encoding="UTF-8" standalone="no"?>
<!-- Created with Inkscape (http://www.inkscape.org/) -->

<svg
   width="841mm"
   height="594mm"
   viewBox="0 0 841 594"
   version="1.1"
   id="svg19656"
   inkscape:version="1.2 (dc2aedaf03, 2022-05-15)"
   sodipodi:docname="Totale_8.7.svg"
   xmlns:inkscape="http://www.inkscape.org/namespaces/inkscape"
   xmlns:sodipodi="http://sodipodi.sourceforge.net/DTD/sodipodi-0.dtd"
   xmlns="http://www.w3.org/2000/svg"
   xmlns:svg="http://www.w3.org/2000/svg">
  <sodipodi:namedview
     id="namedview19658"
     pagecolor="#ffffff"
     bordercolor="#666666"
     borderopacity="1.0"
     inkscape:showpageshadow="2"
     inkscape:pageopacity="0.0"
     inkscape:pagecheckerboard="0"
     inkscape:deskcolor="#d1d1d1"
     inkscape:document-units="mm"
     showgrid="false"
     inkscape:zoom="0.22684031"
     inkscape:cx="1487.8308"
     inkscape:cy="1062.4214"
     inkscape:window-width="1600"
     inkscape:window-height="877"
     inkscape:window-x="-8"
     inkscape:window-y="-8"
     inkscape:window-maximized="1"
     inkscape:current-layer="layer1" />
  <defs
     id="defs19653" />
  <g
     inkscape:label="Calque 1"
     inkscape:groupmode="layer"
     id="layer1">
    <g
       id="g97558"
       transform="translate(902.33512,-937.0034)"
       style="fill:#00c100;fill-opacity:0.144016">
      <rect
         style="opacity:1;fill:#00c100;fill-opacity:0.144016;stroke:none;stroke-width:0.1;stroke-linecap:round;stroke-linejoin:round;stroke-dasharray:none;paint-order:stroke fill markers;stop-color:#000000"
         id="rect97381"
         width="148.5"
         height="8.6999998"
         x="-329.19638"
         y="854.22961" />
      <rect
         style="opacity:1;fill:#00c100;fill-opacity:0.144016;stroke:none;stroke-width:0.1;stroke-linecap:round;stroke-linejoin:round;stroke-dasharray:none;paint-order:stroke fill markers;stop-color:#000000"
         id="rect97383"
         width="148.5"
         height="8.6999998"
         x="-329.19638"
         y="605.72003" />
      <rect
         style="opacity:1;fill:#00c100;fill-opacity:0.144016;stroke:none;stroke-width:0.1;stroke-linecap:round;stroke-linejoin:round;stroke-dasharray:none;paint-order:stroke fill markers;stop-color:#000000"
         id="rect97389"
         width="148.5"
         height="8.6999998"
         x="434.22079"
         y="707.8573"
         transform="rotate(60)" />
      <rect
         style="opacity:1;fill:#00c100;fill-opacity:0.144016;stroke:none;stroke-width:0.1;stroke-linecap:round;stroke-linejoin:round;stroke-dasharray:none;paint-order:stroke fill markers;stop-color:#000000"
         id="rect97391"
         width="148.5"
         height="8.6999998"
         x="434.22079"
         y="459.34763"
         transform="rotate(60)" />
      <rect
         style="opacity:1;fill:#00c100;fill-opacity:0.144016;stroke:none;stroke-width:0.1;stroke-linecap:round;stroke-linejoin:round;stroke-dasharray:none;paint-order:stroke fill markers;stop-color:#000000"
         id="rect97395"
         width="148.5"
         height="8.6999998"
         x="689.16711"
         y="-26.467531"
         transform="rotate(120)" />
      <rect
         style="opacity:1;fill:#00c100;fill-opacity:0.144016;stroke:none;stroke-width:0.1;stroke-linecap:round;stroke-linejoin:round;stroke-dasharray:none;paint-order:stroke fill markers;stop-color:#000000"
         id="rect97397"
         width="148.5"
         height="8.6999998"
         x="689.16711"
         y="-274.97717"
         transform="rotate(120)" />
    </g>
    <path
       id="rect97490"
       style="opacity:0.5;fill:#000000;fill-opacity:0.580122;stroke:none;stroke-width:0.1;stroke-linecap:round;stroke-linejoin:round;stroke-dasharray:none;paint-order:stroke fill markers;stop-color:#000000"
       d="m 360.44984,170.77739 h 45.5001 v 10 h 50 v -10 h 45.5001 V 42.368204 h -141.0002 z" />
    <g
       id="g53905"
       transform="translate(1496.1833,-16.448179)">
      <path
         id="path96988"
         style="opacity:0.5;fill:#000000;fill-opacity:0.576065;stroke:none;stroke-width:0.2;stroke-linecap:round;stroke-linejoin:round;paint-order:stroke fill markers;stop-color:#000000"
         inkscape:transform-center-x="-1.2274637e-05"
         inkscape:transform-center-y="-5.6830112e-06"
         d="m -1404.9249,37.49298 -24.6249,42.65218 7.7944,4.49998 -25,43.30123 -7.7944,-4.49998 -24.6248,42.65166 24.6248,42.65166 7.7944,-4.49999 25,43.30125 -7.7944,4.49998 24.6249,42.65165 h 49.2502 v -8.99997 h 50.0001 v 8.99997 h 49.2497 l 24.6253,-42.65165 -7.7943,-4.49998 25,-43.30125 7.7944,4.49999 24.6248,-42.65166 -24.6248,-42.65166 -7.7944,4.49998 -25,-43.30123 7.7943,-4.49998 -24.6253,-42.65218 h -49.2497 v 9.00048 h -50.0001 v -9.00048 z m 23.3262,3.00033 a 1.5,1.5 0 0 1 1.4997,1.49965 1.5,1.5 0 0 1 -1.4997,1.50017 1.5,1.5 0 0 1 -1.5002,-1.50017 1.5,1.5 0 0 1 1.5002,-1.49965 z m 101.8486,0 a 1.5,1.5 0 0 1 1.4996,1.49965 1.5,1.5 0 0 1 -1.4996,1.50017 1.5,1.5 0 0 1 -1.5002,-1.50017 1.5,1.5 0 0 1 1.5002,-1.49965 z m -132.9402,17.95033 a 1.5,1.5 0 0 1 0.7503,0.20102 1.5,1.5 0 0 1 0.5488,2.04897 1.5,1.5 0 0 1 -2.049,0.54932 1.5,1.5 0 0 1 -0.5493,-2.04897 1.5,1.5 0 0 1 1.2992,-0.75034 z m 164.0313,5.1e-4 a 1.5,1.5 0 0 1 1.2991,0.74983 1.5,1.5 0 0 1 -0.5493,2.04897 1.5,1.5 0 0 1 -2.0489,-0.5488 1.5,1.5 0 0 1 0.5493,-2.04949 1.5,1.5 0 0 1 0.7498,-0.20051 z m -82.0157,5.22087 c 1.385,0 2.5001,1.11511 2.5001,2.50011 v 8.17056 c 1.5466,0.89314 2.4994,2.54347 2.4996,4.32945 0,2.69314 -2.1365,4.90091 -4.8281,4.9935 -0.057,0.004 -0.1136,0.006 -0.1716,0.006 -0.058,0 -0.1156,-0.002 -0.1726,-0.006 -2.6914,-0.0928 -4.8257,-2.30055 -4.8276,-4.9935 -10e-5,-1.78646 0.9529,-3.43728 2.5001,-4.33048 v -8.16953 c 0,-1.385 1.1151,-2.50011 2.5001,-2.50011 z m -25,39.08289 h 9 v 50.00005 h -9 z m 41.0001,0 h 9 v 50.00005 h -9 z m -148.9398,43.89913 a 1.5,1.5 0 0 1 0.7499,0.20102 1.5,1.5 0 0 1 0.5493,2.04897 1.5,1.5 0 0 1 -2.0495,0.54932 1.5,1.5 0 0 1 -0.5488,-2.04897 1.5,1.5 0 0 1 1.2991,-0.75034 z m 265.8799,5.2e-4 a 1.5,1.5 0 0 1 1.2987,0.74982 1.5,1.5 0 0 1 -0.5488,2.04897 1.5,1.5 0 0 1 -2.049,-0.5488 1.5,1.5 0 0 1 0.5488,-2.04949 1.5,1.5 0 0 1 0.7503,-0.2005 z m -157.9402,14.94999 h 50.0001 v 9.00048 h -50.0001 z m -55.4721,3.00033 a 1.5,1.5 0 0 1 1.5002,1.50017 1.5,1.5 0 0 1 -1.5002,1.49965 1.5,1.5 0 0 1 -1.4996,-1.49965 1.5,1.5 0 0 1 1.4996,-1.50017 z m 160.9437,0 a 1.5,1.5 0 0 1 1.5002,1.49965 1.5,1.5 0 0 1 -1.5002,1.50017 1.5,1.5 0 0 1 -1.4996,-1.50017 1.5,1.5 0 0 1 1.4996,-1.49965 z m -213.4113,17.95084 a 1.5,1.5 0 0 1 1.2987,0.74983 1.5,1.5 0 0 1 -0.5488,2.04897 1.5,1.5 0 0 1 -2.049,-0.5488 1.5,1.5 0 0 1 0.5488,-2.04898 1.5,1.5 0 0 1 0.7503,-0.20102 z m 265.8799,0 a 1.5,1.5 0 0 1 0.7499,0.20102 1.5,1.5 0 0 1 0.5488,2.04898 1.5,1.5 0 0 1 -2.049,0.5488 1.5,1.5 0 0 1 -0.5488,-2.04897 1.5,1.5 0 0 1 1.2991,-0.74983 z m -111.1198,19.84324 a 1.5,1.5 0 0 1 1.4997,1.50016 1.5,1.5 0 0 1 -1.4997,1.50017 1.5,1.5 0 0 1 -1.5002,-1.50017 1.5,1.5 0 0 1 1.5002,-1.50016 z m 23.0756,39.96811 a 1.5,1.5 0 0 1 1.4997,1.50017 1.5,1.5 0 0 1 -1.4997,1.49965 1.5,1.5 0 0 1 -1.5002,-1.49965 1.5,1.5 0 0 1 1.5002,-1.50017 z m -126.9116,28.39205 a 1.5,1.5 0 0 1 1.2991,0.74983 1.5,1.5 0 0 1 -0.5493,2.04897 1.5,1.5 0 0 1 -2.049,-0.5488 1.5,1.5 0 0 1 0.5493,-2.04897 1.5,1.5 0 0 1 0.7499,-0.20103 z m 164.0313,0 a 1.5,1.5 0 0 1 0.7503,0.20103 1.5,1.5 0 0 1 0.5488,2.04897 1.5,1.5 0 0 1 -2.0489,0.5488 1.5,1.5 0 0 1 -0.5493,-2.04897 1.5,1.5 0 0 1 1.2991,-0.74983 z m -132.9397,17.95033 a 1.5,1.5 0 0 1 1.4997,1.50017 1.5,1.5 0 0 1 -1.4997,1.50016 1.5,1.5 0 0 1 -1.5002,-1.50016 1.5,1.5 0 0 1 1.5002,-1.50017 z m 101.8486,0 a 1.5,1.5 0 0 1 1.4996,1.50017 1.5,1.5 0 0 1 -1.4996,1.50016 1.5,1.5 0 0 1 -1.5002,-1.50016 1.5,1.5 0 0 1 1.5002,-1.50017 z" />
      <text
         xml:space="preserve"
         style="font-style:normal;font-variant:normal;font-weight:normal;font-stretch:normal;font-size:14.1111px;line-height:1;font-family:Arial;-inkscape-font-specification:'Arial, Normal';font-variant-ligatures:normal;font-variant-caps:normal;font-variant-numeric:normal;font-variant-east-asian:normal;text-align:end;text-anchor:end;stroke-width:0.264583"
         x="-1440.4509"
         y="47.59399"
         id="text97770"><tspan
           sodipodi:role="line"
           id="tspan97768"
           style="font-style:normal;font-variant:normal;font-weight:normal;font-stretch:normal;font-size:14.1111px;font-family:Arial;-inkscape-font-specification:'Arial, Normal';font-variant-ligatures:normal;font-variant-caps:normal;font-variant-numeric:normal;font-variant-east-asian:normal;text-align:end;text-anchor:end;stroke-width:0.264583"
           x="-1440.4509"
           y="47.59399">Fond</tspan><tspan
           sodipodi:role="line"
           style="font-style:normal;font-variant:normal;font-weight:normal;font-stretch:normal;font-size:14.1111px;font-family:Arial;-inkscape-font-specification:'Arial, Normal';font-variant-ligatures:normal;font-variant-caps:normal;font-variant-numeric:normal;font-variant-east-asian:normal;text-align:end;text-anchor:end;stroke-width:0.264583"
           x="-1440.4509"
           y="61.70509"
           id="tspan53923">x1</tspan></text>
    </g>
    <text
       xml:space="preserve"
       style="font-style:normal;font-variant:normal;font-weight:normal;font-stretch:normal;font-size:14.1111px;line-height:1;font-family:Arial;-inkscape-font-specification:'Arial, Normal';font-variant-ligatures:normal;font-variant-caps:normal;font-variant-numeric:normal;font-variant-east-asian:normal;text-align:end;text-anchor:end;stroke-width:0.264583"
       x="822.63995"
       y="97.289444"
       id="text97774"><tspan
         sodipodi:role="line"
         id="tspan97772"
         style="font-style:normal;font-variant:normal;font-weight:normal;font-stretch:normal;font-size:14.1111px;font-family:Arial;-inkscape-font-specification:'Arial, Normal';font-variant-ligatures:normal;font-variant-caps:normal;font-variant-numeric:normal;font-variant-east-asian:normal;text-align:end;text-anchor:end;stroke-width:0.264583"
         x="769.17212"
         y="97.289444">Facettes</tspan><tspan
         sodipodi:role="line"
         style="font-style:normal;font-variant:normal;font-weight:normal;font-stretch:normal;font-size:14.1111px;font-family:Arial;-inkscape-font-specification:'Arial, Normal';font-variant-ligatures:normal;font-variant-caps:normal;font-variant-numeric:normal;font-variant-east-asian:normal;text-align:end;text-anchor:end;stroke-width:0.264583"
         x="769.17212"
         y="111.40054"
         id="tspan53911">x6</tspan></text>
    <g
       id="g53890"
       transform="translate(1429.2564,408.11376)">
      <path
         id="rect97401-7"
         style="opacity:0.5;fill:#000000;fill-opacity:0.580122;stroke:none;stroke-width:0.0999997;stroke-linecap:round;stroke-linejoin:round;stroke-dasharray:none;paint-order:stroke fill markers;stop-color:#000000"
         d="m -1261.7299,7.5925295 h -8.6998 V -102.90775 h -141.0002 v 271 h 141.0002 V 57.592531 h 8.6998 z m -54.1998,18.7497015 v 12.5 h -50.0001 v -12.5 z" />
      <text
         xml:space="preserve"
         style="font-style:normal;font-variant:normal;font-weight:normal;font-stretch:normal;font-size:14.1111px;line-height:0;font-family:Arial;-inkscape-font-specification:'Arial, Normal';font-variant-ligatures:normal;font-variant-caps:normal;font-variant-numeric:normal;font-variant-east-asian:normal;text-align:end;text-anchor:end;stroke-width:0.264583"
         x="-1361.7662"
         y="-127.56149"
         id="text97778"><tspan
           sodipodi:role="line"
           id="tspan97776"
           style="font-style:normal;font-variant:normal;font-weight:normal;font-stretch:normal;font-size:14.1111px;line-height:1;font-family:Arial;-inkscape-font-specification:'Arial, Normal';font-variant-ligatures:normal;font-variant-caps:normal;font-variant-numeric:normal;font-variant-east-asian:normal;text-align:end;text-anchor:end;stroke-width:0.264583"
           x="-1361.7662"
           y="-127.56149">Traverse</tspan><tspan
           sodipodi:role="line"
           style="font-style:normal;font-variant:normal;font-weight:normal;font-stretch:normal;font-size:14.1111px;line-height:1;font-family:Arial;-inkscape-font-specification:'Arial, Normal';font-variant-ligatures:normal;font-variant-caps:normal;font-variant-numeric:normal;font-variant-east-asian:normal;text-align:end;text-anchor:end;stroke-width:0.264583"
           x="-1357.8457"
           y="-113.45039"
           id="tspan53913">x1 </tspan></text>
    </g>
    <text
       xml:space="preserve"
       style="font-style:normal;font-variant:normal;font-weight:normal;font-stretch:normal;font-size:14.1111px;line-height:1;font-family:Arial;-inkscape-font-specification:'Arial, Normal';font-variant-ligatures:normal;font-variant-caps:normal;font-variant-numeric:normal;font-variant-east-asian:normal;stroke-width:0.264583"
       x="347.77563"
       y="59.964069"
       id="text97782"><tspan
         sodipodi:role="line"
         id="tspan97780"
         style="font-style:normal;font-variant:normal;font-weight:normal;font-stretch:normal;font-size:14.1111px;font-family:Arial;-inkscape-font-specification:'Arial, Normal';font-variant-ligatures:normal;font-variant-caps:normal;font-variant-numeric:normal;font-variant-east-asian:normal;text-align:end;text-anchor:end;stroke-width:0.264583"
         x="347.77563"
         y="59.964069">Cloison</tspan><tspan
         sodipodi:role="line"
         style="font-style:normal;font-variant:normal;font-weight:normal;font-stretch:normal;font-size:14.1111px;font-family:Arial;-inkscape-font-specification:'Arial, Normal';font-variant-ligatures:normal;font-variant-caps:normal;font-variant-numeric:normal;font-variant-east-asian:normal;text-align:end;text-anchor:end;stroke-width:0.264583"
         x="347.77563"
         y="74.07515"
         id="tspan53921">1x</tspan></text>
    <g
       id="g53885"
       transform="translate(2041.1193,357.98357)">
      <text
         xml:space="preserve"
         style="font-style:normal;font-variant:normal;font-weight:normal;font-stretch:normal;font-size:14.1111px;line-height:1;font-family:Arial;-inkscape-font-specification:'Arial, Normal';font-variant-ligatures:normal;font-variant-caps:normal;font-variant-numeric:normal;font-variant-east-asian:normal;stroke-width:0.264583"
         x="-1556.2284"
         y="-111.63055"
         id="text97786"><tspan
           sodipodi:role="line"
           style="font-style:normal;font-variant:normal;font-weight:normal;font-stretch:normal;font-size:14.1111px;font-family:Arial;-inkscape-font-specification:'Arial, Normal';font-variant-ligatures:normal;font-variant-caps:normal;font-variant-numeric:normal;font-variant-east-asian:normal;text-align:end;text-anchor:end;stroke-width:0.264583"
           x="-1556.2284"
           y="-111.63055"
           id="tspan53431">Façade</tspan><tspan
           sodipodi:role="line"
           style="font-style:normal;font-variant:normal;font-weight:normal;font-stretch:normal;font-size:14.1111px;font-family:Arial;-inkscape-font-specification:'Arial, Normal';font-variant-ligatures:normal;font-variant-caps:normal;font-variant-numeric:normal;font-variant-east-asian:normal;text-align:end;text-anchor:end;stroke-width:0.264583"
           x="-1556.2284"
           y="-97.519447"
           id="tspan54818">x1</tspan></text>
      <text
         xml:space="preserve"
         style="font-style:normal;font-variant:normal;font-weight:normal;font-stretch:normal;font-size:14.1111px;line-height:1;font-family:Arial;-inkscape-font-specification:'Arial, Normal';font-variant-ligatures:normal;font-variant-caps:normal;font-variant-numeric:normal;font-variant-east-asian:normal;stroke-width:0.264583"
         x="-1556.4076"
         y="-90.321938"
         id="text54826"><tspan
           sodipodi:role="line"
           style="font-style:italic;font-variant:normal;font-weight:normal;font-stretch:normal;font-size:7.05556px;font-family:Arial;-inkscape-font-specification:'Arial Italic';font-variant-ligatures:normal;font-variant-caps:normal;font-variant-numeric:normal;font-variant-east-asian:normal;text-align:end;text-anchor:end;stroke-width:0.264583"
           x="-1556.4076"
           y="-90.321938"
           id="tspan54824">(ex. La Maison Numérique)</tspan></text>
    </g>
    <path
       id="path53453"
       style="opacity:0.5;fill:#000000;fill-opacity:0.580122;stroke:none;stroke-width:0.0999997;stroke-linecap:round;stroke-linejoin:round;stroke-dasharray:none;paint-order:stroke fill markers;stop-color:#000000"
       d="m 575.51567,428.6461 v 8.69974 h -49.2497 v 45.50006 h 8 v 50.00004 h -8 v 45.50008 h 140.49677 v -45.50008 h 7.9997 V 482.8459 h -7.9997 v -45.50006 h -41.24788 v -8.69974 z" />
    <path
       id="path53892"
       style="opacity:0.5;fill:#000000;fill-opacity:0.580122;stroke:none;stroke-width:0.0999997;stroke-linecap:round;stroke-linejoin:round;stroke-dasharray:none;paint-order:stroke fill markers;stop-color:#000000"
       d="m 729.81682,428.6461 v 8.69974 h -49.2497 v 45.50006 h 8 v 50.00004 h -8 v 45.50008 h 140.4968 v -45.50008 h 7.9997 V 482.8459 h -7.9997 v -45.50006 h -41.2479 v -8.69974 z" />
    <path
       id="path53894"
       style="opacity:0.5;fill:#000000;fill-opacity:0.580122;stroke:none;stroke-width:0.0999997;stroke-linecap:round;stroke-linejoin:round;stroke-dasharray:none;paint-order:stroke fill markers;stop-color:#000000"
       d="m 575.51567,117.02383 v 8.69973 h -49.2497 v 45.50006 h 8 v 50.00005 h -8 v 45.50006 h 140.49677 v -45.50006 h 7.9997 v -50.00005 h -7.9997 v -45.50006 h -41.24788 v -8.69973 z" />
    <path
       id="path53896"
       style="opacity:0.5;fill:#000000;fill-opacity:0.580122;stroke:none;stroke-width:0.0999997;stroke-linecap:round;stroke-linejoin:round;stroke-dasharray:none;paint-order:stroke fill markers;stop-color:#000000"
       d="m 729.81682,117.02383 v 8.69973 h -49.2497 v 45.50006 h 8 v 50.00005 h -8 v 45.50006 h 140.4968 v -45.50006 h 7.9997 v -50.00005 h -7.9997 v -45.50006 h -41.2479 v -8.69973 z" />
    <path
       id="path53898"
       style="opacity:0.5;fill:#000000;fill-opacity:0.580122;stroke:none;stroke-width:0.0999997;stroke-linecap:round;stroke-linejoin:round;stroke-dasharray:none;paint-order:stroke fill markers;stop-color:#000000"
       d="m 575.51567,272.83497 v 8.69973 h -49.2497 v 45.50006 h 8 v 50.00005 h -8 v 45.50007 h 140.49677 v -45.50007 h 7.9997 v -50.00005 h -7.9997 V 281.5347 h -41.24788 v -8.69973 z" />
    <path
       id="path53900"
       style="opacity:0.5;fill:#000000;fill-opacity:0.580122;stroke:none;stroke-width:0.0999997;stroke-linecap:round;stroke-linejoin:round;stroke-dasharray:none;paint-order:stroke fill markers;stop-color:#000000"
       d="m 729.81682,272.83497 v 8.69973 h -49.2497 v 45.50006 h 8 v 50.00005 h -8 v 45.50007 h 140.4968 v -45.50007 h 7.9997 v -50.00005 h -7.9997 V 281.5347 h -41.2479 v -8.69973 z" />
    <path
       id="path97723-1"
       style="opacity:0.5;fill:#000000;fill-opacity:0.5801217;stroke:none;stroke-width:0.0999999;stroke-linecap:round;stroke-linejoin:round;stroke-dasharray:none;paint-order:stroke fill markers;stop-color:#000000"
       inkscape:transform-center-x="-2.9094694e-05"
       inkscape:transform-center-y="3.4503856e-06"
       d="m 257.9614,270.45127 -87.5001,151.55405 87.5001,151.55457 h 175.00015 l 87.5001,-151.55457 -87.5001,-151.55405 z m 34.86559,101.554 h 35.91927 l 0.75135,1.43196 c 0.41287,0.78769 0.75135,1.55238 0.75135,1.69912 0,0.14682 -16.85408,0.26665 -37.45299,0.26665 -20.26005,0 -29.41435,0.0209 -33.66306,0.18449 v -0.0336 h -4.09745 c 0.12753,-0.24209 0.13421,-0.26208 0.26773,-0.5147 l 1.60404,-3.0334 z m 69.51665,0.003 h 26.95912 26.96369 l 1.54564,2.85926 c 0.85021,1.57244 1.54515,3.10137 1.54515,3.39772 0,0.86527 -9.89972,0.70677 -11.63653,-0.18655 -2.88188,-1.4821 -8.83256,-0.36193 -8.45114,1.59061 0.1892,0.96893 1.86781,1.68522 3.75119,1.95595 v 2.65255 c -0.72948,0.10473 -1.45877,0.28412 -2.14407,0.56637 -2.55638,1.0531 -2.13782,2.68929 0.87956,3.43597 1.9794,0.48992 1.83988,2.26918 -0.25012,3.17552 -2.33969,1.01536 -2.41056,2.61455 -0.15243,3.41994 1.57159,0.56034 1.75183,0.80692 1.75183,2.39521 0,1.61475 -0.17319,1.83704 -1.96994,2.53266 -2.25436,0.87307 -2.64641,2.3123 -0.8614,3.16105 0.66299,0.31525 1.6707,0.49075 2.74657,0.54983 v 1.01596 h -3.80439 -15.14693 v -1.04748 c 0.67715,-0.13398 1.35447,-0.44115 1.987,-0.93173 2.75887,-2.13962 0.96082,-7.24555 -2.5518,-7.24555 -1.50839,0 -4.02337,1.61129 -4.03332,2.5833 0,0.3142 -3.78455,3.41122 -8.40467,6.88175 -7.8175,5.87221 -8.56063,6.31601 -10.70321,6.39548 -0.0687,0.002 -0.12735,0.01 -0.19433,0.0129 v -2.33991 c 1.3604,-0.0231 2.72667,-0.25255 3.57083,-0.68316 h 0.01 c 0.79881,-0.40708 1.45574,-1.00796 1.45574,-1.3348 0,-0.76679 7.09606,-6.17688 8.09716,-6.17688 0.64643,0 0.75864,-0.89691 0.74362,-5.94589 l -0.0247,-5.9459 -7.08277,-4.78679 c -2.0072,-1.35648 -3.85271,-2.5741 -5.22244,-3.45353 l 0.01,-0.0149 -3.0861,-1.91617 c 0.3231,-0.58241 0.58076,-1.0598 0.95081,-1.71307 z m -103.21073,4.89738 c 4.23876,0.17559 13.50106,0.19688 34.44494,0.19688 36.25336,0 38.60676,0.0811 38.63278,1.33481 0,0.19991 -17.73631,0.3638 -39.41929,0.3638 -21.6849,0 -39.35114,-0.16385 -39.25913,-0.3638 0.0402,-0.0874 0.5163,-0.98927 0.77415,-1.48518 h 4.82655 z m 98.82448,2.9068 3.01269,1.87172 0.01,-0.0134 c 1.16355,0.8434 2.74336,1.9 4.71083,3.12694 l 6.89054,4.29689 v 4.79093 4.79143 l -4.17388,3.10421 -4.17339,3.10368 -3.33417,-0.23409 c -2.80342,-0.19693 -3.52369,-0.0832 -4.52429,0.71623 -1.38067,1.10367 -1.14927,2.34684 0.56382,3.02514 0.4586,0.1816 1.03521,0.30455 1.66187,0.37724 v 2.55437 c -2.0858,0.29676 -3.24372,0.97119 -3.24372,1.95388 0,0.69274 0.5383,1.22969 1.72291,1.71773 2.27012,0.93503 2.39283,2.66195 0.24549,3.46077 -2.3075,0.85869 -1.88097,3.00152 0.73794,3.70675 1.94542,0.52367 5.82908,-0.10964 6.85174,-1.11828 h 5.6e-4 c 0.92361,-0.91112 0.93647,-1.03678 0.1824,-1.78128 -0.44692,-0.44083 -1.65822,-0.93597 -2.69182,-1.10071 -1.41404,-0.22546 -1.91619,-0.55239 -2.02834,-1.32085 -0.12271,-0.84862 0.23474,-1.11646 2.11206,-1.58285 2.36515,-0.58698 3.20065,-1.5584 2.28043,-2.65152 -0.4277,-0.50828 1.03688,-1.84063 6.89778,-6.27042 l 7.44145,-5.62498 1.21383,1.42265 c 0.61054,0.71528 1.36646,1.16031 2.17768,1.33739 v 1.05833 h -4.95266 l -4.66023,3.51917 -4.66065,3.51916 -0.0352,3.71967 -0.0352,3.72019 2.06658,1.49758 2.06652,1.49862 h 7.05898 c 1.28162,0 2.35718,0.006 3.31607,0.0238 v 1.05368 c -0.14977,0.0203 -0.30091,0.0463 -0.4542,0.0842 -1.6987,0.4201 -3.22358,2.16721 -3.22358,3.69383 0,0.9887 -0.71916,1.84578 -3.18174,3.7915 -3.13917,2.47989 -3.22759,2.51427 -6.52364,2.49907 -2.07536,-0.0124 -3.68446,-0.27215 -4.24779,-0.69298 -0.93368,-0.69753 -2.3416,-1.00471 -3.76929,-1.02423 v -2.30115 c 2.67619,0.066 4.4313,-0.70508 4.4313,-2.02726 0,-2.04891 -5.98164,-2.87787 -8.75143,-1.21285 -1.29491,0.77832 -2.48094,0.96893 -6.03064,0.96893 h -4.41887 v -12.13466 c 0,-3.6227 -0.0136,-6.13791 -0.0556,-7.94835 h 0.0111 v -6.72362 c 0.47336,-0.77677 1.08136,-1.82573 1.71359,-2.96933 l 2.23087,-4.03541 2.36002,0.37982 c 1.29775,0.20884 3.57707,0.62729 5.06636,0.93018 0.2951,0.0601 0.52409,0.0897 0.77928,0.13229 v 3.37447 c -0.67158,0.10555 -1.34335,0.29054 -2.02519,0.57154 -3.35401,1.38152 -1.33562,3.66541 3.23909,3.66541 2.51819,0 3.00675,-0.19004 5.61158,-2.18436 1.56918,-1.20134 3.15826,-2.18437 3.53208,-2.18437 0.51717,0 0.67949,-0.87096 0.67949,-3.65094 v -3.65042 l -6.40013,-4.10569 c -3.51991,-2.25789 -6.40012,-4.21693 -6.40012,-4.35322 0,-0.079 0.47416,-0.97777 1.11936,-2.16215 z m -105.36672,0.19947 40.40062,0.11627 c 40.7567,0.11658 41.15987,0.1334 41.19286,1.70429 0,0.19991 -14.15812,0.36432 -31.47147,0.36432 h -31.47816 l -4.2044,4.24677 -4.20392,4.24728 -0.0253,7.5892 v 7.58921 l -1.25258,0.80976 c -0.689,0.44499 -1.45901,1.34329 -1.71105,1.99678 -0.40218,1.04295 -0.76062,1.18856 -2.93212,1.18856 -1.35737,0 -2.4627,-0.11459 -2.47271,-0.25425 0,-0.14428 0.77828,-1.77913 1.7281,-3.63854 l 1.72959,-3.38532 h -1.96015 c -1.49306,0 -1.89556,-0.16449 -1.69085,-0.69091 0.4159,-1.06895 -1.40198,-1.73633 -4.73097,-1.73633 -3.32911,0 -5.14637,0.66738 -4.73047,1.73633 0.20791,0.53372 -0.23072,0.69091 -1.93164,0.69091 -1.20988,0 -2.19986,-0.17779 -2.19986,-0.39429 0,-0.21653 0.95568,-2.12816 2.12337,-4.24728 1.39203,-2.52602 2.36737,-3.78852 2.83134,-3.6649 1.65884,0.44201 5.96383,0.63211 7.57683,0.33383 1.27581,-0.23612 1.74614,-0.57312 1.74614,-1.25005 0,-1.15449 -2.33901,-1.66669 -6.17688,-1.35289 -1.4765,0.12078 -2.68459,0.14328 -2.68459,0.0475 0,-0.093 1.46846,-2.84211 3.26386,-6.10815 z m 168.00265,0.006 3.57966,6.5505 c 1.96685,3.60257 3.35197,6.62436 3.07683,6.71484 -0.27892,0.0918 -0.5008,1.75101 -0.5008,3.74602 v 3.58221 l -2.92693,1.95957 -2.92693,1.95957 h -16.29514 v -1.01492 c 1.47446,-0.0778 2.85284,-0.36712 3.46282,-0.85421 v 5.2e-4 c 1.51833,-1.21208 0.98331,-2.31026 -1.47897,-3.03755 -1.86651,-0.55148 -1.99472,-0.70555 -1.99472,-2.3921 0,-1.71775 0.0902,-1.81703 1.90531,-2.10323 3.69342,-0.58224 3.84375,-2.87763 0.25062,-3.82509 -1.75146,-0.46212 -2.15538,-0.77739 -2.15538,-1.68155 0,-0.78024 0.28664,-1.11259 0.96113,-1.11259 1.81485,0 3.52331,-1.08476 3.36883,-2.13889 -0.19599,-1.33511 -2.09945,-2.15251 -4.32174,-2.19625 v -2.43447 c 1.29015,0.006 2.51437,-0.21454 3.26856,-0.73536 0.73318,-0.50592 2.72333,-0.7525 6.87862,-0.85008 z m -148.65138,3.6344 29.41009,0.11576 v 1.83296 h -3.59307 -22.43063 l -2.81589,2.805 -2.81584,2.80499 v 11.41326 11.41378 l -2.11045,2.04225 -2.11101,2.04277 h -7.73544 c -4.73807,0 -7.73544,-0.18457 -7.73544,-0.47697 0,-0.26211 0.76056,-1.82984 1.69035,-3.48352 l 1.6898,-3.00653 3.10988,0.12144 c 1.7105,0.067 3.18854,0.3355 3.28351,0.59789 0.87573,2.40958 5.04819,3.16225 6.87918,1.24076 1.51054,-1.58522 1.44603,-4.3753 -0.13742,-5.93659 -0.66429,-0.6553 -1.44042,-1.19166 -1.72341,-1.19166 -0.33533,0 -0.5147,-2.58036 -0.5147,-7.41401 v -7.41299 l 3.83021,-3.75429 z m 30.82295,0.12093 0.8795,0.004 31.703,0.12454 4.21676,7.52461 h -2.91197 -2.65407 -2.65358 -5.3077 l -2.92334,-2.91248 -2.92335,-2.91249 h -17.42525 z m 53.03342,0.16071 c 0.1929,-0.11781 3.05353,1.51315 6.35675,3.62304 l 6.00579,3.83593 v 2.15905 c 0,1.94045 -0.19982,2.31608 -1.97507,3.7021 -1.78674,1.39521 -2.12269,1.492 -3.51967,1.01182 -0.84996,-0.29212 -1.67552,-0.45065 -2.49236,-0.48782 v -3.11609 c 0.78261,0.007 1.45493,-0.12155 2.28772,-0.40205 4.78398,-1.61097 1.47292,-3.07445 -5.84409,-2.58279 -2.85711,0.19173 -5.195,0.20415 -5.195,0.0253 0,-0.47809 3.96584,-7.51875 4.37593,-7.76852 z m -79.42409,3.12384 h 21.41316 3.56465 v 1.45159 h -6.83061 -17.73741 l -0.69092,0.65681 v 3.11454 3.77031 l 3.44681,2.13217 3.44527,2.13217 v 2.49649 c 0,2.19526 -0.19976,2.68701 -1.65154,4.0752 l -1.65211,1.57872 -0.63302,-1.50844 c -0.77032,-1.83375 -2.3678,-1.83474 -3.3047,-10e-4 -0.82705,1.61715 -0.77137,5.28734 0.10232,6.79545 0.38747,0.66746 0.71137,1.87948 0.72138,2.69338 0.0253,1.40523 0.78645,1.96676 15.27915,11.14092 l 4.49278,2.84375 -2.2231,3.24166 c -0.55233,-0.29052 -1.16694,-0.49712 -1.88053,-0.49712 -1.56931,0 -3.80804,1.41739 -3.80804,2.41122 0,0.23736 -0.2993,0.72731 -0.66608,1.08882 -0.3669,0.36156 -1.02291,1.30588 -1.45784,2.09807 -0.77631,1.41341 -0.79126,1.35846 -0.81029,-2.96727 l -0.0247,-4.408 -2.17298,-1.5384 -2.17249,-1.53841 h -7.11014 -7.10965 l -2.56107,2.6696 c -1.40841,1.46833 -2.75374,2.66961 -2.98952,2.66961 -0.58372,0 -1.53316,1.23798 -2.06807,2.44429 h -7.37163 c -0.1423,-1.99105 -0.94549,-3.62934 -2.20505,-3.80907 -0.0632,-0.009 -0.12506,-0.0134 -0.18604,-0.0134 -1.08248,-10e-4 -1.7881,1.40129 -1.9482,3.82251 h -7.92352 l 2.6427,-4.79713 6.50813,-11.81375 8.79944,0.0636 8.79895,0.063 2.38695,-2.54662 2.38745,-2.54661 v -11.20293 -11.20242 l 2.59982,-2.53163 z m 26.39067,0 h 16.4362 l 3.30983,3.28817 c 1.82054,1.80872 3.3099,3.66539 3.3099,4.12585 0,0.74202 0.61628,0.83767 5.41515,0.83767 h 0.72818 v 2.51302 c -1.18504,-0.004 -2.39641,0.17776 -3.39003,0.58705 -3.887,1.60141 -4.53034,1.31787 -10.34354,-4.56044 l -5.28083,-5.33973 h -10.18486 z m -2.58437,3.39359 h 12.76355 l 4.27367,4.49895 -2.31615,2.18643 c -0.5079,-0.30708 -1.09545,-0.53488 -1.77407,-0.66869 -0.32266,-0.0636 -0.59639,-0.0994 -0.8449,-0.0977 -0.74536,0.005 -1.26438,0.34551 -2.19986,1.26814 -1.83537,1.80965 -1.96976,3.86645 -0.37209,5.69785 1.42225,1.63024 4.39169,1.79331 5.88289,0.32297 0.97806,-0.96425 0.98887,-0.96311 6.21718,0.74776 2.88052,0.9426 5.61553,2.10046 6.07715,2.57297 0.46187,0.47277 1.52742,1.00821 2.36731,1.19011 1.27767,0.27691 1.50233,0.53117 1.3756,1.56011 -0.11258,0.92137 -0.58353,1.36662 -1.87479,1.7756 -2.4404,0.77301 -2.63924,2.48064 -0.40465,3.47627 0.66219,0.2951 1.50195,0.45066 2.37867,0.50643 v 3.31763 c -3.88199,0.0211 -5.41985,0.39992 -5.41985,1.23093 0,0.77487 1.69715,1.44964 3.7528,1.49242 1.04979,0.0248 4.84466,-0.10936 8.43254,-0.29094 l 6.52259,-0.33073 v 6.0756 6.0756 l 0.0136,0.008 v 0.76482 l -3.01479,-1.87327 0.11011,-2.79983 0.11004,-2.79932 -2.67062,-1.67793 -2.67063,-1.67742 -7.47296,-0.0129 -7.47346,-0.0124 -3.96152,-2.48563 -3.96096,-2.48616 1.46452,-1.34927 c 1.9713,-1.81539 1.98045,-3.92424 0.0297,-5.85132 -0.86752,-0.85539 -1.9579,-1.41852 -2.74558,-1.41852 -1.52192,0 -3.43891,1.7134 -4.01113,3.35535 h -15.38512 c 0.25352,-0.68288 0.43357,-1.46517 0.43357,-1.98437 0,-0.95503 0.54287,-1.68374 2.06967,-2.79053 1.13635,-0.82396 2.35513,-1.49861 2.70782,-1.49861 0.49641,0 0.6418,-1.52854 0.6418,-6.75721 v -6.75721 l -3.56977,-0.21911 c -3.876,-0.2386 -8.24656,-1.23534 -8.24656,-1.88103 0,-0.22198 5.7443,-0.40359 12.7646,-0.40359 z m -22.60432,10e-4 h 4.22616 c 3.07528,0 4.17153,0.1591 4.02762,0.58446 -0.10757,0.32129 -0.90254,0.76488 -1.76425,0.98495 -0.8617,0.22 -1.56628,0.70042 -1.56628,1.06712 0,1.29643 2.92359,1.76151 8.95911,1.42524 l 5.81054,-0.32401 v 5.37693 5.37745 l -1.59582,1.23093 -1.59575,1.23145 -1.03298,-1.27796 c -1.22014,-1.50836 -2.443,-1.2749 -3.16778,0.6041 -0.69537,1.80372 -0.56716,5.11839 0.25321,6.53345 0.44617,0.7697 0.71971,2.72275 0.74566,5.33972 l 0.0433,4.12533 23.60733,14.99961 c 21.80199,13.85241 23.60628,15.10237 23.60628,16.3437 0,1.09773 -0.27101,1.40224 -1.47119,1.66243 -0.80931,0.17511 -1.59754,0.52082 -1.75239,0.7674 -0.15496,0.24678 -2.16859,0.44752 -4.47621,0.44752 -4.0665,0 -4.26094,0.0531 -6.29879,1.6986 l -2.10329,1.69964 h -10.16423 c -1.42299,0 -2.26783,0.007 -3.3207,0.0114 v -0.62735 c 0.9618,-0.0551 1.89932,-0.21692 2.63862,-0.52142 2.77208,-1.14197 2.25732,-2.88027 -1.04596,-3.53157 l -1.55287,-0.30696 v -9.28315 c 0,-5.10567 -0.17017,-9.51306 -0.3695,-9.79372 -0.20019,-0.28047 -7.06349,-4.74997 -15.25437,-9.93169 -9.79566,-6.19695 -14.89261,-9.69985 -14.89261,-10.23452 0,-0.44733 0.33064,-1.4383 0.73535,-2.20297 0.40459,-0.76467 0.73844,-1.748 0.73844,-2.18487 0,-0.43668 1.11127,-1.95742 2.46499,-3.37912 2.44158,-2.5651 2.46135,-2.6104 2.46135,-5.80223 v -3.21635 l -3.44632,-2.13217 -3.44632,-2.13216 v -2.31459 z m 59.07548,2.37246 h 3.69694 c 2.00201,3.56754 3.80933,6.58667 4.68605,7.8574 v 6.09627 h 0.0105 c -0.0161,1.09381 -0.0266,2.43141 -0.0266,4.14032 v 8.32714 l -8.06928,-0.3266 c -1.4542,-0.0588 -2.6815,-0.088 -3.80389,-0.10283 v -3.33003 c 1.53371,-0.10754 2.98772,-0.5262 3.68352,-1.21233 0.80888,-0.79742 0.86375,-1.08187 0.33224,-1.71307 -0.35015,-0.41596 -1.32882,-0.93158 -2.17502,-1.14619 -1.15458,-0.2929 -1.57505,-0.70106 -1.68776,-1.63763 -0.12258,-1.01588 0.10535,-1.31085 1.22836,-1.58853 2.82288,-0.69859 3.54512,-2.60112 1.36009,-3.58272 -1.4005,-0.62905 -5.35997,-0.69757 -6.86465,-0.11834 -0.65162,0.25088 -2.78463,-0.21874 -6.37795,-1.40457 -4.99647,-1.64927 -5.42708,-1.89067 -5.78205,-3.24166 -0.18321,-0.69671 -0.47991,-1.29258 -0.8842,-1.78645 l 2.21179,-2.08877 c 4.24599,4.46333 4.5537,4.66785 6.64295,4.68809 1.21854,0.0124 2.6453,0.34173 3.17087,0.73381 0.60584,0.45144 2.0939,0.71313 4.0618,0.71313 2.50386,0 3.30718,-0.19945 4.14497,-1.02526 l 1.03922,-1.02474 -0.99844,-0.98393 c -0.59348,-0.58522 -1.66187,-0.96472 -2.87268,-1.13894 v -2.61896 h 3.27319 v -1.94149 z m 91.9479,2.22416 h 4.9e-4 c 0.0229,-6.2e-4 0.0482,0.0116 0.0729,0.0377 0.51526,0.53078 6.44462,11.20677 6.44462,11.60446 0,0.14484 -12.57936,0.26355 -27.95287,0.26355 h -2.56725 v -0.48524 h 16.56077 l 3.53307,-2.22881 3.53314,-2.22828 v -3.69384 c 0,-2.02323 0.14637,-3.26246 0.37518,-3.26956 z m -50.76485,11.42049 h 4.66738 v 0.48524 h -3.28919 l -3.30989,3.28869 c -2.97407,2.9547 -3.30625,3.48474 -3.30625,5.21829 0,1.73612 0.19754,2.03874 1.94356,3.02151 1.72866,0.97313 2.61348,1.09193 8.12508,1.09193 v 0.98443 c -0.73071,-0.004 -1.30442,-0.014 -2.26702,-0.014 -6.49053,0 -7.44689,-0.10804 -9.01237,-1.01854 -1.70975,-0.99461 -1.75065,-1.08931 -1.7307,-4.00441 l 0.0247,-2.98587 4.07724,-3.0334 z m 6.23941,0 h 15.42176 3.52949 v 0.48524 h -18.95125 z m -1.57308,2.42672 v 0.52607 c -1.862,0.24451 -3.5264,1.71195 -3.5264,4.08502 0,2.32539 1.74757,3.9037 3.69126,4.12895 v 0.47697 c -4.99425,-0.0123 -5.97737,-0.15077 -7.18404,-0.99787 -0.78657,-0.55205 -1.42262,-1.37105 -1.42262,-1.82004 0,-0.4491 1.12955,-2.07246 2.50213,-3.60754 l 2.49496,-2.79104 z m 1.57308,5.2e-4 h 23.65176 28.66955 l 1.10639,1.94149 1.10694,1.94148 h -25.61447 -25.61547 l -0.58965,-1.09193 c -0.65261,-1.20782 -1.64969,-1.91244 -2.71505,-2.18281 z m -91.2663,5.24413 h 15.83939 c 0.26884,1.5792 1.71889,3.49797 2.7693,3.49797 0.43203,0 0.63945,0.14423 0.46094,0.31988 -0.17758,0.17585 1.82159,1.70477 4.44421,3.39772 l 4.76922,3.07889 h 4.86789 c 3.66839,0 4.81791,0.14869 4.66381,0.60461 -0.28102,0.83192 -3.21239,1.27578 -8.64911,1.30897 l -4.58731,0.0289 -1.62467,-1.69861 c -1.76679,-1.84714 -3.01424,-2.08567 -5.16609,-0.98857 -3.72153,1.89732 -2.08981,7.54166 2.18021,7.54166 1.76907,0 4.18476,-1.69457 4.18476,-2.93522 0,-0.45088 3.05168,-0.43613 9.47794,0.005 v 1.51361 c -2.10594,0.40037 -3.88032,2.31974 -3.3212,4.82968 0.39916,1.79188 2.40154,3.3755 4.26848,3.3755 1.4115,0 3.84937,-1.83059 3.84937,-2.89026 0,-0.29648 1.22719,-0.50798 2.95381,-0.50798 h 2.95436 v 1.76475 c 0,1.25093 -0.35312,2.08675 -1.2113,2.87114 -2.60514,2.38038 -1.93473,5.5859 1.51672,7.25227 1.11096,0.53609 4.93011,2.83179 8.48679,5.10098 l 6.4668,4.12585 v 2.97036 2.97088 l -3.07732,0.64285 c -1.69233,0.35327 -5.62444,0.71277 -8.73852,0.7984 -11.55707,0.31774 -27.42043,0.27094 -30.40173,-0.0894 -0.57414,-0.0693 -1.11838,-0.10072 -1.63919,-0.1111 v -0.63924 c 1.13592,0.005 2.09148,0.0114 3.66073,0.0114 h 10.50431 l 2.06343,-1.94252 c 1.99917,-1.87494 2.18448,-1.942 5.41929,-1.942 2.09699,0 3.94576,0.2933 4.94285,0.78394 2.18132,1.07281 7.27233,0.73679 8.22122,-0.54261 0.57012,-0.7688 0.55276,-1.02688 -0.11783,-1.757 -0.43227,-0.47098 -1.42695,-0.9944 -2.21123,-1.16427 -1.26617,-0.27397 -1.42627,-0.51499 -1.42627,-2.14353 v -1.834 l -23.63112,-14.98354 -23.63161,-14.98306 v -3.47524 c 0,-1.67575 0.17591,-3.17966 0.46867,-4.16719 z m 131.87928,0.0935 h 14.69575 l 4.13514,7.58662 c 2.27475,4.17219 4.21114,7.78197 4.30413,8.02173 0.0952,0.24381 -0.69734,0.29899 -1.79576,0.12557 -2.07931,-0.32781 -5.07736,0.39763 -5.95568,1.44126 -0.81333,0.9661 0.42276,2.22857 2.67118,2.72851 0.28936,0.0644 0.59435,0.11116 0.91101,0.14108 v 5.67821 l -13.3165,-0.0124 c -15.20309,-0.0124 -16.31924,-0.24785 -17.32503,-0.81494 -0.78849,-0.44435 -1.86577,-0.67009 -2.99465,-0.72037 v -4.00802 c 1.41978,-0.083 2.73903,-0.3844 3.35383,-0.93328 1.37467,-1.22656 0.62449,-2.58307 -1.66193,-3.00602 l -1.71723,-0.31729 v -7.95508 -7.95507 z m -30.94331,0.0951 c 1.25042,-0.006 2.62367,-3.3e-4 4.0623,0.0176 l 10.46186,0.13074 v 7.72304 7.72356 l -1.64481,0.54571 c -0.91021,0.30213 -1.52606,0.66153 -1.86868,1.05678 h -9.30326 c 0.10467,-4.54849 0.23887,-8.27238 0.37876,-8.554 0.26619,-0.53609 -0.47799,-1.27094 -2.82615,-2.79052 l -3.18792,-2.06293 h -5.7351 v -0.56947 c 0.73832,-0.17595 1.45284,-0.55907 2.05621,-1.20096 0.66391,-0.70643 1.20716,-1.47569 1.20716,-1.70894 0,-0.17486 2.64814,-0.29274 6.39963,-0.31058 z m -9.663,5.25601 c 4.53745,0.0156 5.02385,0.15596 7.21716,1.56735 l 2.44689,1.57768 v 13.44363 13.4431 l -3.6923,2.80242 c -1.18307,0.89786 -2.19269,1.72114 -2.86959,2.31768 l -1.74614,1.36168 -7.72407,-14.43788 6.27506,-4.74131 c 3.4517,-2.60735 6.37467,-4.90059 6.49467,-5.09633 0.12011,-0.19595 0.29782,-2.25751 0.39377,-4.58215 l 0.17468,-4.22713 -1.69603,-1.23403 c -1.27056,-0.92476 -1.84229,-1.15338 -5.2741,-1.2113 z m 0,2.49494 c 4.55784,0.22012 4.75476,1.16639 4.75476,5.29839 v 3.80597 l -5.78514,4.38681 c -3.18175,2.41284 -5.90978,4.38821 -6.0627,4.38991 -0.15262,10e-4 -0.66998,-0.80719 -1.14878,-1.7973 l -0.87072,-1.80041 -2.97605,5.66735 c -2.6005,4.95213 -3.08789,5.60801 -3.86488,5.19813 -0.48912,-0.25797 -1.35212,-0.4687 -1.91718,-0.4687 -0.56542,0 -1.90902,-0.57566 -2.98643,-1.27848 -1.5263,-0.99603 -1.95802,-1.585 -1.95802,-2.6696 0,-1.372 0.0433,-1.39165 2.85569,-1.39165 1.57036,0 3.09357,0.23553 3.38527,0.52297 0.2922,0.28758 1.1675,0.45139 1.94511,0.3638 1.04101,-0.11711 1.45691,-0.45425 1.57512,-1.27796 0.31339,-2.18063 -1.97013,-3.3387 -3.53728,-1.79369 -0.99405,0.9801 -6.59804,0.96914 -7.91834,-0.0124 -0.52551,-0.39172 -1.38616,-0.71261 -1.91204,-0.71261 -0.5262,0 -3.25237,-1.44334 -6.05961,-3.20756 -5.0671,-3.18506 -5.10356,-3.22172 -5.10356,-5.12734 v -1.91874 l 5.2922,0.25011 c 2.78419,0.13191 6.26697,0.36493 8.06255,0.53434 v 2.47013 c -2.56837,0.29894 -4.69229,1.46254 -3.50725,2.87011 0.81561,0.9689 3.38812,1.70075 4.92116,1.39991 0.67695,-0.13318 3.72338,-0.36619 6.76956,-0.51883 3.04624,-0.15253 5.53873,-0.43555 5.53873,-0.62942 0,-0.19421 1.32716,-1.38203 2.95016,-2.63911 2.8078,-2.17475 3.00422,-2.24866 4.04833,-1.52756 1.67169,1.15438 4.16369,0.96081 5.57797,-0.43356 2.38609,-2.35269 0.798,-6.20545 -2.06863,-6.87814 z m -50.07393,2.31304 v 0 c 1.24368,0.0486 2.89214,0.50952 4.11346,1.30638 1.86125,1.21465 1.94232,1.37777 2.08203,4.21266 l 0.1447,2.94918 3.30885,1.9761 1.36268,0.75551 0.0253,4.87102 v 4.8457 l 10.33995,6.56601 c 4.60257,2.92576 8.36915,5.43006 8.35914,5.56503 0,0.13493 -1.06647,2.21099 -2.35693,4.61368 l -2.34611,4.36872 -26.81287,0.24288 c -13.59078,0.12305 -20.32703,0.21889 -23.68073,0.39998 v -1.14825 c 0.46032,-0.0255 0.9542,-0.0672 1.51672,-0.13695 1.48929,-0.18452 9.24376,-0.33893 17.23149,-0.34313 13.35901,-0.005 15.00413,-0.10213 20.52074,-1.18184 l 5.99702,-1.17357 0.15762,-4.06332 0.15763,-4.06332 -6.77791,-4.33306 -6.77839,-4.33307 0.99325,-0.97979 c 2.03321,-2.00445 0.59064,-6.80423 -2.04539,-6.80423 -0.77001,0 -0.89915,-0.41612 -0.89915,-2.91249 v -2.91248 h -3.47833 c -3.26021,0 -3.55544,-0.0906 -4.72015,-1.45573 -0.7288,-0.85379 -1.63845,-1.30592 -2.56775,-1.44177 v -1.38028 c 0.89995,0.0654 1.62059,0.10834 2.64529,0.18914 2.68762,0.21182 3.66295,0.10539 4.43074,-0.48576 0.97348,-0.74874 0.97348,-0.76605 0.0297,-1.4857 -0.52551,-0.40058 -1.35608,-0.72812 -1.84588,-0.72812 -0.48973,0 -0.89093,-0.32783 -0.89093,-0.72812 0,-0.47032 0.51514,-0.71793 1.27693,-0.76636 0.15861,-0.01 0.32822,-0.0116 0.50592,-0.005 z m -66.5608,5.38313 h 6.0787 c 5.40533,0 6.2996,0.12161 8.02332,1.09193 l 1.93942,1.09244 v 4.69222 c 0,3.28029 0.18524,4.75141 0.60973,4.89065 0.43091,0.14138 0.25673,0.84888 -0.60096,2.44275 l -1.20667,2.24276 -1.25313,-1.4795 c -0.8108,-0.95751 -1.87671,-1.41962 -2.94658,-1.48725 v -1.08624 c 0.89396,-0.65361 1.61546,-2.58385 1.55645,-5.16092 -0.0656,-2.81841 -0.73349,-4.25491 -1.9797,-4.26021 -0.083,-3.5e-4 -0.16881,0.005 -0.25686,0.0176 -0.80998,0.11363 -1.2645,0.74869 -1.84686,2.57813 -0.72484,2.27848 -1.19159,2.746 -7.63059,7.64295 -4.11296,3.128 -12.1241,8.40459 -12.79871,8.40569 -0.61856,9.8e-4 -1.65562,-0.342 -2.30471,-0.7612 h -5.6e-4 c -0.18542,-0.11978 -0.37159,-0.21012 -0.56845,-0.28732 l -0.11005,-2.85616 c 0,0 0.62055,-0.3986 0.78496,-0.70176 0.68691,-1.26548 0.16022,-2.40906 -1.27228,-2.76366 -0.2264,-0.056 -0.4463,-0.0811 -0.65682,-0.0786 -1.13685,0.0135 -1.99002,0.84071 -1.99002,2.05724 0,1.30808 1.71926,1.71101 1.71926,1.71101 l 0.0729,2.64893 c -1.21328,0.5189 -1.84507,2.13898 -0.6041,3.36259 0.18233,0.17963 0.41324,0.31742 0.68832,0.46147 l 0.0858,2.25154 c 0,0 -0.15948,1.87873 -1.9684,2.57917 -2.25399,0.87307 -2.64715,2.31179 -0.86196,3.16053 0.67319,0.32011 1.69999,0.49721 2.7947,0.55346 v 0.99839 l -4.63383,-0.002 -5.29269,-3.37912 -5.29171,-3.37964 0.0303,-6.92671 0.0297,-6.92723 3.09542,-5.61878 h 8.66926 c 0.1059,4.12303 2.37095,5.87177 3.70725,2.7187 0.36672,-0.86523 0.57457,-1.80184 0.64959,-2.7187 h 6.98767 c 0,0.0248 -0.01,0.0556 -0.01,0.0796 0,3.59753 4.86616,5.37915 7.24508,2.65255 1.6762,-1.92115 1.50876,-4.2278 -0.42276,-5.83014 l -1.54718,-1.28312 1.64382,-1.67225 z m 29.73256,1.18443 9.93017,6.2854 v 9.02477 9.02374 l -1.55855,0.46509 c -2.10854,0.62845 -2.8728,1.88527 -1.79317,2.94969 0.592,0.58409 1.91854,0.93946 3.37341,1.03043 v 0.62632 h -6.89518 c -2.15852,-4.05861 -4.4722,-8.37557 -6.10039,-11.42566 l -4.15065,-7.77524 1.90272,0.1788 c 1.52791,0.14385 2.15136,-0.0662 3.16104,-1.06143 1.85947,-1.83337 1.51154,-4.56193 -0.11523,-6.04614 z m 98.2431,1.9792 h 9.25631 c 0.11338,0.17315 0.25463,0.34795 0.45372,0.52555 0.60929,0.54354 1.90895,0.84555 3.31242,0.93328 v 4.04937 c -2.0921,0.19877 -3.99389,0.95436 -4.20539,2.0376 -0.36845,1.88335 5.66292,2.99093 8.45892,1.55339 0.99857,-0.51349 2.22686,-0.59906 11.64734,-0.61443 v 2.57969 c -0.44896,0.13338 -0.84972,0.33349 -1.0475,0.56844 -0.39199,0.46628 -1.48225,0.72812 -3.02876,0.72812 -1.70128,0 -3.27418,0.42734 -5.32061,1.4459 -2.7737,1.38041 -2.98378,1.4128 -4.64725,0.72761 -2.20042,-0.90698 -4.28807,-0.91161 -6.46575,-0.0124 -2.9386,1.21045 -1.99466,3.02008 1.98434,3.80545 0.0581,0.0115 0.12037,0.0132 0.17938,0.0227 v 4.32842 c -1.40631,0.11078 -2.65883,0.41363 -3.16624,0.91415 -1.48292,1.46191 0.54374,2.85781 3.16624,3.22564 v 6.74016 c -10.9838,0.19791 -13.73098,0.3755 -13.73098,0.89762 0,0.55917 2.64072,0.72162 15.13914,0.93276 2.69201,0.0454 3.16784,0.0358 5.20279,0.0682 v 3.59875 H 393.9293 l -7.75348,-14.49369 2.91092,-2.27169 c 0.61449,-0.366 1.33766,-0.83821 2.18485,-1.42679 l 3.92073,-2.72387 0.13798,-13.6896 c 0.0167,-1.69532 0.0612,-2.9182 0.0914,-4.45037 z m 53.7595,0.48628 c 0.63408,0.16523 1.67923,1.78767 4.18118,6.36499 4.37049,7.99659 4.23345,7.68207 3.18631,7.28586 -1.23101,-0.46568 -2.73983,0.51525 -2.73983,1.78232 0,0.37461 0.064,0.7082 0.17567,0.99632 l -1.83346,1.20664 c -0.40391,-0.19555 -0.88561,-0.30297 -1.34155,-0.29817 -0.45137,0.005 -0.87746,0.11911 -1.17973,0.36639 -0.9618,0.78708 -0.93764,2.74617 0.0426,3.2861 0.54659,0.30176 0.72676,0.98402 0.61548,2.32957 -0.12525,1.5162 -0.37252,1.93327 -1.21439,2.05156 -0.58094,0.0816 -1.42973,0.55561 -1.88622,1.05265 -0.78151,0.85134 -0.77038,0.96285 0.19482,1.91409 0.65829,0.64907 1.30818,0.90535 2.84579,0.98289 v 3.67678 l -8.4811,-0.0656 c -7.58171,-0.0591 -14.67097,-0.11982 -15.75406,-0.13591 -0.0148,-4e-4 -0.14941,0.002 -0.1664,0.002 v -3.04891 c 0.87857,-0.0687 1.78606,-0.25983 2.65561,-0.61805 0.93931,-0.38699 1.70741,-1.0299 1.70741,-1.42885 0,-0.95506 -1.89636,-2.23604 -3.30989,-2.23604 -0.98751,0 -1.12134,-0.24183 -1.12134,-2.0252 0,-1.16958 0.33075,-2.38469 0.78286,-2.87734 0.684,-0.74516 0.61826,-1.59762 0.18345,-2.25103 l 9.58082,-10.30686 c 10.23343,0.0319 11.74509,0.18203 12.654,0.90795 l 1.15501,0.92191 -1.20562,0.96221 c -1.08111,0.86303 -1.14321,1.09731 -0.60361,2.26498 0.46762,1.01241 0.89118,1.26839 1.90173,1.14929 0.71508,-0.0846 1.542,-0.53493 1.83809,-1.00098 0.39681,-0.62509 0.3779,-1.10158 -0.0718,-1.81384 -0.33662,-0.53134 -0.61134,-1.30617 -0.61134,-1.72238 0,-0.41596 -0.54423,-1.29294 -1.2087,-1.9482 l -1.20822,-1.19114 -3.71912,-0.004 v -5.66374 c 1.23367,-0.0815 2.53296,-0.37324 3.70571,-0.85421 0.0768,-0.0315 0.15899,-0.0376 0.24957,-0.014 z m -102.73483,0.5333 3.25046,2.05052 4.67777,2.95073 -0.80567,1.66553 c -1.9362,4.00372 1.71266,7.47651 5.88599,5.60172 1.00468,-0.45088 1.50628,-0.32768 3.22357,0.79272 1.19048,0.77673 2.03347,1.70716 2.03347,2.24379 0,0.50413 0.54324,1.16033 1.20667,1.45831 l 1.20611,0.54208 -0.95346,1.84227 c -0.52415,1.013 -1.18158,1.98075 -1.46142,2.15129 -0.27972,0.1704 -4.04104,-1.9821 -8.41185,-4.69946 l -10.05622,-6.25233 0.063,-2.36729 0.0641,-2.3673 0.1271,-4.7346 -0.0494,-0.0346 z m -71.15064,5.52524 0.61955,1.45211 c 0.23023,0.53985 0.48918,0.90794 0.75914,1.14929 v 1.3224 c -1.65829,0.44747 -3.02975,1.84334 -3.02975,3.84214 0,2.1457 1.95246,4.07727 4.12118,4.07727 0.98287,0 1.78699,0.0416 1.78699,0.0935 0,0.0534 -1.86237,3.55742 -4.13829,7.79074 l -4.13824,7.69669 -8.539,-0.11214 c -4.8944,-0.0646 -7.92186,-0.095 -10.38388,-0.10748 v -1.50017 c 1.54613,0.006 2.89442,0.0134 5.02811,0.0134 12.36273,0 14.27768,-0.0978 14.27768,-0.72812 0,-0.62817 -1.74077,-0.72919 -12.67723,-0.73639 l -6.62856,-0.003 v -0.99322 c 1.51623,-0.0685 2.94651,-0.36269 3.57187,-0.86197 h 0.0105 c 1.5263,-1.21863 0.97434,-2.32962 -1.47947,-2.98121 -1.86657,-0.49584 -1.99522,-2.29288 -1.99522,-2.29288 l -0.0538,-2.40399 c 0.18709,-0.12964 0.31914,-0.23683 0.40514,-0.37466 0.16758,-0.26687 1.2883,-0.48524 2.49083,-0.48524 0.71786,0 1.5064,-0.31221 1.71457,-0.43408 0.364,-0.21319 8.2101,-5.82643 11.78223,-8.52196 z m 154.40451,1.9327 c 1.98502,0 3.10148,0.008 4.67981,0.0103 l -8.76842,9.43302 c -0.25606,-0.1002 -0.52317,-0.17163 -0.80048,-0.16899 -0.48535,0.005 -0.98095,0.18547 -1.41026,0.60875 -0.67492,0.66542 -0.70686,1.03455 -0.20569,2.40296 0.32482,0.88921 0.59292,2.3655 0.58291,3.28093 0,1.39698 -0.266,1.78202 -1.60039,2.39314 -3.29191,1.50802 -1.17009,3.48213 2.07579,3.78323 v 3.07785 c -2.52579,0.0139 -8.62946,0.0934 -16.10854,0.21704 -0.2351,0.004 -0.34571,0.007 -0.57414,0.0114 v -6.61613 c 1.09082,-0.0271 2.18664,-0.24624 3.10476,-0.71831 v -5.1e-4 c 0.77557,-0.3988 1.93874,-0.72554 2.5848,-0.72554 0.64594,0 1.1746,-0.22061 1.1746,-0.49041 0,-0.26981 1.69869,-2.24328 3.77448,-4.38526 1.51778,-1.56641 2.43089,-2.58396 2.90419,-3.2706 l 2.59364,-2.84324 c 0.65663,0.52357 2.40413,0.33369 3.03086,-0.41083 0.34898,-0.4142 0.4749,-1.24242 0.29658,-1.942 -0.20211,-0.79688 -0.53391,-1.1022 -1.27637,-1.18339 v -2.45825 c 1.34415,-0.001 2.26252,-0.005 3.94187,-0.005 z m -195.7002,5.09737 0.14984,5.82445 0.15039,5.82496 4.40386,2.65927 c 2.87212,1.73399 4.40491,2.95834 4.40491,3.51917 0,0.63857 0.88951,0.80125 7.83363,0.84284 v 1.49862 c -3.52121,-0.002 -5.3053,0.0663 -7.86724,0.24288 l -4.23437,0.29197 -5.74017,-3.6742 c -2.3078,-1.47732 -4.32971,-2.74229 -5.30412,-3.32434 l -0.92911,-0.60255 c 0.13921,-0.25592 0.22145,-0.41401 0.36276,-0.67334 z m 186.71002,0.24288 c 0.67343,0 1.31356,0.0528 1.82004,0.1359 l -2.24632,2.46187 c -0.71082,0.52467 -1.79842,1.59313 -3.53005,3.43183 l -4.05556,4.30723 -1.67224,-0.85266 c -0.81592,-0.41606 -2.11707,-0.62629 -3.4551,-0.66507 v -4.27416 c 1.50888,-0.18814 3.41988,-0.92429 6.39908,-2.42363 l -5e-4,-0.002 c 3.355,-1.68866 4.72566,-2.11977 6.74065,-2.11977 z m 37.63959,2.43344 h 4.9e-4 c 0.0229,-1.2e-4 0.0389,0.007 0.0519,0.0212 0.48801,0.55561 5.74332,10.22179 5.74332,10.56369 0,0.21428 -1.93856,1.8076 -4.30778,3.53984 l -4.30827,3.14968 -3.73099,-0.029 v -3.66179 c 2.42966,-0.0101 3.22549,-0.21463 4.03177,-1.00975 0.95581,-0.94225 0.96978,-1.06914 0.21237,-1.89291 -0.44568,-0.4858 -1.5711,-1.02432 -2.50114,-1.19631 -1.5428,-0.28521 -1.69134,-0.46083 -1.69134,-2.0066 0,-0.93165 0.33681,-2.20166 0.74931,-2.82205 0.41219,-0.62039 0.60948,-1.48866 0.4382,-1.92908 -0.0241,-0.0629 -0.055,-0.12325 -0.0899,-0.1819 l 1.60867,-1.05885 c 0.79923,0.67587 2.06423,0.56854 2.90524,-0.61547 0.36313,-0.5108 0.73213,-0.86725 0.88833,-0.87074 z m -232.15017,11.66647 1.82882,1.18649 c 0.90149,0.68469 2.26733,1.59004 4.17184,2.76624 l 5.75573,3.55482 5.66169,0.40825 c 3.1136,0.22421 6.32623,0.39071 7.13857,0.37 0.81209,-0.0248 5.52019,-0.17049 10.46186,-0.33331 4.94173,-0.16346 8.9845,-0.15478 8.9845,0.0176 0,0.17287 -0.33786,0.95795 -0.75086,1.74563 l -0.75085,1.43195 H 244.5896 c -13.26008,0 -24.11115,-0.13991 -24.11115,-0.31161 l -0.0173,-0.007 c 0,-0.15314 2.57115,-4.98784 5.73813,-10.8288 z m 238.79214,0.94413 c 0.42251,0 5.10812,8.2149 5.46841,9.58701 0.12747,0.48164 -7.75342,0.6072 -38.1858,0.6072 h -18.25106 v -3.58014 c 10.78366,0.16535 14.91553,0.17292 23.70706,-0.0868 6.33129,-0.18701 8.97974,-0.10093 9.47899,0.30851 0.95655,0.78271 6.57159,0.76278 8.07602,-0.0295 0.67702,-0.35621 3.03481,-2.03337 5.23998,-3.7269 2.20518,-1.69346 4.21492,-3.0794 4.4664,-3.0794 z m -163.88147,0.23823 h 6.02031 v 0.91984 c -1.17423,0.10331 -1.72341,0.30718 -1.72341,1.43454 0,1.38611 1.72341,1.5198 1.72341,1.5198 v 6.08128 h -0.73275 l -4.03597,-7.60108 c -0.40089,-0.75468 -0.82068,-1.54376 -1.25159,-2.35438 z m 7.43521,6.15776 c 3.29827,0.16334 9.87147,0.2292 23.07298,0.29249 l 26.20616,0.12557 -0.81956,1.69447 -0.81963,1.69447 -24.89408,-0.005 -22.74587,-0.004 z" />
  </g>
</svg>
